{"asset":{"version":"2.0","generator":"POKEDEX Companion World Builder"},"scene":0,"scenes":[{"name":"Paldea Companion World","nodes":[0,1,2,3,4,5,6,7,8,9,10,11,12,13,14,15,16,17,18]}],"nodes":[{"mesh":0,"translation":[0,-0.08,-7],"scale":[18,1,24],"name":"Paldea Field"},{"mesh":1,"translation":[0,-0.055,-5.5],"scale":[2.4,1,15],"name":"Route to Mesagoza"},{"mesh":5,"translation":[-5,-0.02,-10],"scale":[5.5,2.4,5],"name":"West Paldea Hill"},{"mesh":5,"translation":[5.3,-0.02,-11.5],"scale":[6.5,2,5.5],"name":"East Paldea Hill"},{"mesh":5,"translation":[-1.8,-0.02,-14],"scale":[4.5,3.2,4],"name":"Distant Paldea Ridge"},{"mesh":2,"translation":[0,1,-12.2],"scale":[4.2,2,1.7],"name":"Mesagoza Academy"},{"mesh":2,"translation":[-1.65,2.15,-12.15],"scale":[0.65,2.3,0.72],"name":"Academy Left Tower"},{"mesh":2,"translation":[1.65,2.15,-12.15],"scale":[0.65,2.3,0.72],"name":"Academy Right Tower"},{"mesh":2,"translation":[0,2.55,-12.15],"scale":[0.82,3.1,0.82],"name":"Academy Central Tower"},{"mesh":3,"translation":[0,4.05,-12.15],"scale":[1.25,0.95,1.25],"name":"Academy Roof"},{"mesh":4,"translation":[0,0.15,-9.7],"scale":[5.2,0.3,0.32],"name":"Mesagoza Wall"},{"mesh":7,"translation":[-3.4,0.55,-6.5],"scale":[0.18,1.1,0.18],"name":"Tree Trunk"},{"mesh":6,"translation":[-3.4,1,-6.5],"scale":[1.15,2.1,1.15],"name":"Paldea Tree"},{"mesh":7,"translation":[3.5,0.55,-6.5],"scale":[0.18,1.1,0.18],"name":"Tree Trunk"},{"mesh":6,"translation":[3.5,1,-6.5],"scale":[1.15,2.1,1.15],"name":"Paldea Tree"},{"mesh":7,"translation":[-5.8,0.55,-6.5],"scale":[0.18,1.1,0.18],"name":"Tree Trunk"},{"mesh":6,"translation":[-5.8,1,-6.5],"scale":[1.15,2.1,1.15],"name":"Paldea Tree"},{"mesh":7,"translation":[5.9,0.55,-6.5],"scale":[0.18,1.1,0.18],"name":"Tree Trunk"},{"mesh":6,"translation":[5.9,1,-6.5],"scale":[1.15,2.1,1.15],"name":"Paldea Tree"}],"meshes":[{"primitives":[{"attributes":{"POSITION":3,"NORMAL":4},"indices":5,"material":0}]},{"primitives":[{"attributes":{"POSITION":3,"NORMAL":4},"indices":5,"material":1}]},{"primitives":[{"attributes":{"POSITION":0,"NORMAL":1},"indices":2,"material":2}]},{"primitives":[{"attributes":{"POSITION":6,"NORMAL":7},"indices":8,"material":3}]},{"primitives":[{"attributes":{"POSITION":0,"NORMAL":1},"indices":2,"material":4}]},{"primitives":[{"attributes":{"POSITION":6,"NORMAL":7},"indices":8,"material":5}]},{"primitives":[{"attributes":{"POSITION":6,"NORMAL":7},"indices":8,"material":6}]},{"primitives":[{"attributes":{"POSITION":0,"NORMAL":1},"indices":2,"material":7}]}],"materials":[{"name":"Paldea Grass","pbrMetallicRoughness":{"baseColorFactor":[0.26,0.52,0.24,1],"metallicFactor":0,"roughnessFactor":0.86},"doubleSided":true},{"name":"Route","pbrMetallicRoughness":{"baseColorFactor":[0.71,0.55,0.34,1],"metallicFactor":0,"roughnessFactor":0.86},"doubleSided":true},{"name":"Mesagoza Academy","pbrMetallicRoughness":{"baseColorFactor":[0.68,0.27,0.2,1],"metallicFactor":0,"roughnessFactor":0.86},"doubleSided":true},{"name":"Academy Roof","pbrMetallicRoughness":{"baseColorFactor":[0.35,0.12,0.16,1],"metallicFactor":0,"roughnessFactor":0.86},"doubleSided":true},{"name":"Mesagoza Stone","pbrMetallicRoughness":{"baseColorFactor":[0.8,0.72,0.56,1],"metallicFactor":0,"roughnessFactor":0.86},"doubleSided":true},{"name":"Paldea Hill","pbrMetallicRoughness":{"baseColorFactor":[0.38,0.61,0.32,1],"metallicFactor":0,"roughnessFactor":0.86},"doubleSided":true},{"name":"Paldea Tree","pbrMetallicRoughness":{"baseColorFactor":[0.21,0.42,0.21,1],"metallicFactor":0,"roughnessFactor":0.86},"doubleSided":true},{"name":"Tree Trunk","pbrMetallicRoughness":{"baseColorFactor":[0.48,0.31,0.18,1],"metallicFactor":0,"roughnessFactor":0.86},"doubleSided":true}],"buffers":[{"byteLength":1068,"uri":"data:application/octet-stream;base64,"}],"bufferViews":[{"buffer":0,"byteOffset":0,"byteLength":288,"target":34962},{"buffer":0,"byteOffset":288,"byteLength":288,"target":34962},{"buffer":0,"byteOffset":576,"byteLength":72,"target":34963},{"buffer":0,"byteOffset":648,"byteLength":48,"target":34962},{"buffer":0,"byteOffset":696,"byteLength":48,"target":34962},{"buffer":0,"byteOffset":744,"byteLength":12,"target":34963},{"buffer":0,"byteOffset":756,"byteLength":144,"target":34962},{"buffer":0,"byteOffset":900,"byteLength":144,"target":34962},{"buffer":0,"byteOffset":1044,"byteLength":24,"target":34963}],"accessors":[{"bufferView":0,"componentType":5126,"count":24,"type":"VEC3","min":[-0.5,-0.5,-0.5],"max":[0.5,0.5,0.5]},{"bufferView":1,"componentType":5126,"count":24,"type":"VEC3"},{"bufferView":2,"componentType":5123,"count":36,"type":"SCALAR"},{"bufferView":3,"componentType":5126,"count":4,"type":"VEC3","min":[-0.5,0,-0.5],"max":[0.5,0,0.5]},{"bufferView":4,"componentType":5126,"count":4,"type":"VEC3"},{"bufferView":5,"componentType":5123,"count":6,"type":"SCALAR"},{"bufferView":6,"componentType":5126,"count":12,"type":"VEC3","min":[-0.5,0,-0.5],"max":[0.5,1,0.5]},{"bufferView":7,"componentType":5126,"count":12,"type":"VEC3"},{"bufferView":8,"componentType":5123,"count":12,"type":"SCALAR"}]}